<?xml version="1.0" encoding="UTF-8"?>
<svg id="Livello_2" data-name="Livello 2" xmlns="http://www.w3.org/2000/svg" viewBox="0 0 272.76 26.81">
  <defs>
    <style>
      .cls-1 {
        stroke-width: 0px;
      }
    </style>
  </defs>
  <g id="Livello_1-2" data-name="Livello 1">
    <g>
      <path class="cls-1" d="m43.29,14.27c-.83-.56-1.76-.97-2.63-1.44.55-.33,1.18-.67,1.76-1.07,3.09-2.09,3.68-6,1.33-8.87C42.17.97,40.01.06,37.61.04,29.41-.03,21.2.01,13,.02c-.24,0-.48.02-.79.04v12.26H0v1.43h12.22v13.04h.96c8.37,0,16.75,0,25.12,0,1.71,0,3.29-.45,4.71-1.37,2.68-1.72,3.74-4.39,3.06-7.35-.38-1.65-1.42-2.88-2.78-3.81ZM13.91,1.46c.24-.02.45-.05.66-.05,7.11,0,14.21-.02,21.32.01,3.09.01,4.95,2.04,5.1,5.12.02.52-.01,1.04-.1,1.55-.36,2.22-1.88,3.73-4.11,4.1-.41.07-.84.11-1.25.11-6.94,0-13.87,0-20.81,0h-.81V1.46Zm27.4,21.56c-.67,1.22-1.73,1.96-3.08,2.23-.53.11-1.08.15-1.62.15-7.26,0-14.51,0-21.77,0h-.91v-11.7c.29,0,.54,0,.78,0,7.13,0,14.26,0,21.4.01.73,0,1.49.1,2.2.29,1.78.48,2.95,1.64,3.49,3.41.58,1.92.5,3.8-.48,5.59Z"/>
      <path class="cls-1" d="m208.33,21.81c-.4-.28-.68-.46-.96-.66-3.61-2.64-7.22-5.29-10.84-7.94-5.85-4.28-11.7-8.56-17.55-12.85-.16-.12-.32-.3-.49-.32-.85-.07-1.71-.06-2.56-.01v26.7h1.56V5.06c.3.2.51.32.7.46,2.2,1.61,4.39,3.21,6.59,4.82,4.01,2.94,8.03,5.87,12.04,8.81,3.25,2.38,6.5,4.77,9.76,7.15.24.17.49.43.75.45.85.07,1.71.08,2.56,0V.06h-1.57v21.75Z"/>
      <path class="cls-1" d="m261.11.18s-.01.05-.02.07c0,.05-.01.1-.01.15,0,6.98,0,13.97,0,20.95,0,.05,0,.1,0,.15,0,.05-.01.1-.02.15,0,.02-.02.04-.04.05-.02.01-.05.02-.11.04-.65-.48-1.33-.99-2-1.48-5.67-4.15-11.35-8.29-17.02-12.44-3.42-2.5-6.83-5-10.25-7.49-.19-.14-.43-.28-.65-.29-.74-.04-1.48-.01-2.26-.01-.15,1.04-.11,26.18.04,26.72h1.43c0-.84,0-1.62,0-2.41,0-.82,0-1.63,0-2.45,0-.79,0-1.58,0-2.38s0-1.58,0-2.38,0-1.63,0-2.45c0-.79,0-1.58,0-2.38s0-1.58,0-2.38c0-.82,0-1.63,0-2.45,0-.77-.02-1.55.02-2.41.22.14.32.19.42.26,2.28,1.66,4.56,3.32,6.84,4.99,4.23,3.1,8.46,6.2,12.69,9.3,3.07,2.25,6.16,4.48,9.22,6.75.45.34.89.49,1.43.44.6-.05,1.22.09,1.82-.09V.07h-1.45c-.05.07-.06.09-.07.11Z"/>
      <path class="cls-1" d="m154.17,3.32c-2.58-2.15-5.59-3.27-8.94-3.3-6.49-.05-12.98-.01-19.47-.01-.27,0-.54,0-.85,0-.15,1.11-.1,26.2.06,26.77h.86c6.32,0,12.63-.01,18.95,0,2.4,0,4.64-.55,6.79-1.6,4.67-2.29,7.68-7.33,7.24-12.75-.3-3.69-1.81-6.75-4.64-9.12Zm-.29,15.14c-1.38,4.01-4.59,6.6-8.81,6.86-.74.05-1.48.09-2.22.09-5.15,0-10.31,0-15.46,0-.29,0-.59,0-.96,0V1.47c.19-.02.38-.07.56-.07,5.78,0,11.56-.09,17.33.01,4.77.09,8.25,2.65,9.71,7.4.98,3.2.94,6.46-.15,9.64Z"/>
      <path class="cls-1" d="m74.53,10.98c-2.02-3.49-4.04-6.98-6.06-10.46-.1-.17-.22-.42-.36-.45-.44-.07-.9-.1-1.33-.02-.21.04-.4.33-.54.55-1.86,2.92-3.7,5.85-5.56,8.78-3.53,5.56-7.06,11.11-10.58,16.66-.14.21-.26.44-.43.73h1.54c.08-.1.15-.2.22-.3,1.44-2.25,2.88-4.5,4.29-6.77.29-.47.6-.66,1.18-.66,5.8.03,11.59.02,17.39.02h.72c.42.71.82,1.37,1.2,2.03,1.01,1.76,2.01,3.52,3,5.29.13.22.24.42.55.42,1.26,0,2.52,0,3.91,0-.36-.64-.64-1.13-.92-1.62-2.74-4.73-5.48-9.46-8.22-14.19Zm-17.41,6.58c2.99-4.88,5.92-9.65,8.94-14.56,2.75,4.89,5.4,9.7,8.11,14.56h-17.05Z"/>
      <path class="cls-1" d="m90.69,20.07c0-.94,0-1.88,0-2.82,0-.97,0-1.93,0-2.9,0-.94,0-1.88,0-2.82s0-1.93,0-2.9c0-.97,0-1.93,0-2.9,0-.94,0-1.88,0-2.82,0-.95.04-1.91-.03-2.87h-1.54c0,8.95,0,17.82,0,26.67,1.19.16,28.99.1,29.49-.04v-3.63h-27.93c0-1.05,0-2.01,0-2.97Z"/>
      <path class="cls-1" d="m218.55,26.72h1.44V.05h-1.47c-.16,1-.12,26.16.03,26.67Z"/>
      <path class="cls-1" d="m271.23.06v26.68h1.52V.06h-1.52Z"/>
      <path class="cls-1" d="m165.73,26.06c0,.2.02.39.04.59,0,.02.03.04.05.05.02.02.03.04.02.02h1.4V.07h-1.51c0,8.7,0,17.34,0,25.98Z"/>
    </g>
  </g>
</svg>