<?xml version="1.0" encoding="iso-8859-1"?>
<!-- Generator: Adobe Illustrator 30.3.0, SVG Export Plug-In . SVG Version: 9.03 Build 0)  -->
<svg version="1.1" id="Livello_2_00000183954944112665716700000009506725137352501408_"
	 xmlns="http://www.w3.org/2000/svg" xmlns:xlink="http://www.w3.org/1999/xlink" x="0px" y="0px" width="272.76px"
	 height="26.81px" viewBox="0 0 272.76 26.81" enable-background="new 0 0 272.76 26.81" xml:space="preserve">
<g id="Livello_1-2">
	<g>
		<path fill="#FFFFFF" d="M43.29,14.27c-0.83-0.56-1.76-0.97-2.63-1.44c0.55-0.33,1.18-0.67,1.76-1.07c3.09-2.09,3.68-6,1.33-8.87
			c-1.58-1.92-3.74-2.83-6.14-2.85C29.41-0.03,21.2,0.01,13,0.02c-0.24,0-0.48,0.02-0.79,0.04v12.26H0v1.43h12.22v13.04h0.96
			c8.37,0,16.75,0,25.12,0c1.71,0,3.29-0.45,4.71-1.37c2.68-1.72,3.74-4.39,3.06-7.35c-0.38-1.65-1.42-2.88-2.78-3.81L43.29,14.27z
			 M13.91,1.46c0.24-0.02,0.45-0.05,0.66-0.05c7.11,0,14.21-0.02,21.32,0.01c3.09,0.01,4.95,2.04,5.1,5.12
			c0.02,0.52-0.01,1.04-0.1,1.55c-0.36,2.22-1.88,3.73-4.11,4.1c-0.41,0.07-0.84,0.11-1.25,0.11c-6.94,0-13.87,0-20.81,0h-0.81
			C13.91,12.3,13.91,1.46,13.91,1.46z M41.31,23.02c-0.67,1.22-1.73,1.96-3.08,2.23c-0.53,0.11-1.08,0.15-1.62,0.15
			c-7.26,0-14.51,0-21.77,0h-0.91V13.7c0.29,0,0.54,0,0.78,0c7.13,0,14.26,0,21.4,0.01c0.73,0,1.49,0.1,2.2,0.29
			c1.78,0.48,2.95,1.64,3.49,3.41c0.58,1.92,0.5,3.8-0.48,5.59L41.31,23.02z"/>
		<path fill="#FFFFFF" d="M208.33,21.81c-0.4-0.28-0.68-0.46-0.96-0.66c-3.61-2.64-7.22-5.29-10.84-7.94
			c-5.85-4.28-11.7-8.56-17.55-12.85c-0.16-0.12-0.32-0.3-0.49-0.32c-0.85-0.07-1.71-0.06-2.56-0.01v26.7h1.56V5.06
			c0.3,0.2,0.51,0.32,0.7,0.46c2.2,1.61,4.39,3.21,6.59,4.82c4.01,2.94,8.03,5.87,12.04,8.81c3.25,2.38,6.5,4.77,9.76,7.15
			c0.24,0.17,0.49,0.43,0.75,0.45c0.85,0.07,1.71,0.08,2.56,0V0.06h-1.57v21.75H208.33z"/>
		<path fill="#FFFFFF" d="M261.11,0.18c0,0-0.01,0.05-0.02,0.07c0,0.05-0.01,0.1-0.01,0.15c0,6.98,0,13.97,0,20.95
			c0,0.05,0,0.1,0,0.15s-0.01,0.1-0.02,0.15c0,0.02-0.02,0.04-0.04,0.05c-0.02,0.01-0.05,0.02-0.11,0.04
			c-0.65-0.48-1.33-0.99-2-1.48c-5.67-4.15-11.35-8.29-17.02-12.44c-3.42-2.5-6.83-5-10.25-7.49c-0.19-0.14-0.43-0.28-0.65-0.29
			c-0.74-0.04-1.48-0.01-2.26-0.01c-0.15,1.04-0.11,26.18,0.04,26.72h1.43c0-0.84,0-1.62,0-2.41c0-0.82,0-1.63,0-2.45
			c0-0.79,0-1.58,0-2.38s0-1.58,0-2.38s0-1.63,0-2.45c0-0.79,0-1.58,0-2.38s0-1.58,0-2.38c0-0.82,0-1.63,0-2.45
			c0-0.77-0.02-1.55,0.02-2.41c0.22,0.14,0.32,0.19,0.42,0.26c2.28,1.66,4.56,3.32,6.84,4.99c4.23,3.1,8.46,6.2,12.69,9.3
			c3.07,2.25,6.16,4.48,9.22,6.75c0.45,0.34,0.89,0.49,1.43,0.44c0.6-0.05,1.22,0.09,1.82-0.09V0.07h-1.45
			c-0.05,0.07-0.06,0.09-0.07,0.11H261.11z"/>
		<path fill="#FFFFFF" d="M154.17,3.32c-2.58-2.15-5.59-3.27-8.94-3.3c-6.49-0.05-12.98-0.01-19.47-0.01c-0.27,0-0.54,0-0.85,0
			c-0.15,1.11-0.1,26.2,0.06,26.77h0.86c6.32,0,12.63-0.01,18.95,0c2.4,0,4.64-0.55,6.79-1.6c4.67-2.29,7.68-7.33,7.24-12.75
			c-0.3-3.69-1.81-6.75-4.64-9.12V3.32z M153.88,18.46c-1.38,4.01-4.59,6.6-8.81,6.86c-0.74,0.05-1.48,0.09-2.22,0.09
			c-5.15,0-10.31,0-15.46,0c-0.29,0-0.59,0-0.96,0V1.47c0.19-0.02,0.38-0.07,0.56-0.07c5.78,0,11.56-0.09,17.33,0.01
			c4.77,0.09,8.25,2.65,9.71,7.4c0.98,3.2,0.94,6.46-0.15,9.64L153.88,18.46z"/>
		<path fill="#FFFFFF" d="M74.53,10.98C72.51,7.49,70.49,4,68.47,0.52c-0.1-0.17-0.22-0.42-0.36-0.45c-0.44-0.07-0.9-0.1-1.33-0.02
			c-0.21,0.04-0.4,0.33-0.54,0.55c-1.86,2.92-3.7,5.85-5.56,8.78c-3.53,5.56-7.06,11.11-10.58,16.66c-0.14,0.21-0.26,0.44-0.43,0.73
			h1.54c0.08-0.1,0.15-0.2,0.22-0.3c1.44-2.25,2.88-4.5,4.29-6.77c0.29-0.47,0.6-0.66,1.18-0.66c5.8,0.03,11.59,0.02,17.39,0.02
			h0.72c0.42,0.71,0.82,1.37,1.2,2.03c1.01,1.76,2.01,3.52,3,5.29c0.13,0.22,0.24,0.42,0.55,0.42c1.26,0,2.52,0,3.91,0
			c-0.36-0.64-0.64-1.13-0.92-1.62c-2.74-4.73-5.48-9.46-8.22-14.19L74.53,10.98z M57.12,17.56c2.99-4.88,5.92-9.65,8.94-14.56
			c2.75,4.89,5.4,9.7,8.11,14.56H57.12z"/>
		<path fill="#FFFFFF" d="M90.69,20.07c0-0.94,0-1.88,0-2.82c0-0.97,0-1.93,0-2.9c0-0.94,0-1.88,0-2.82s0-1.93,0-2.9s0-1.93,0-2.9
			c0-0.94,0-1.88,0-2.82c0-0.95,0.04-1.91-0.03-2.87h-1.54c0,8.95,0,17.82,0,26.67c1.19,0.16,28.99,0.1,29.49-0.04v-3.63H90.68
			c0-1.05,0-2.01,0-2.97L90.69,20.07z"/>
		<path fill="#FFFFFF" d="M218.55,26.72h1.44V0.05h-1.47C218.36,1.05,218.4,26.21,218.55,26.72z"/>
		<path fill="#FFFFFF" d="M271.23,0.06v26.68h1.52V0.06H271.23z"/>
		<path fill="#FFFFFF" d="M165.73,26.06c0,0.2,0.02,0.39,0.04,0.59c0,0.02,0.03,0.04,0.05,0.05c0.02,0.02,0.03,0.04,0.02,0.02h1.4
			V0.07h-1.51c0,8.7,0,17.34,0,25.98V26.06z"/>
	</g>
</g>
</svg>
