<?xml version="1.0" encoding="iso-8859-1"?>
<!-- Generator: Adobe Illustrator 30.3.0, SVG Export Plug-In . SVG Version: 9.03 Build 0)  -->
<svg version="1.1" id="Layer_2" xmlns="http://www.w3.org/2000/svg" xmlns:xlink="http://www.w3.org/1999/xlink" x="0px" y="0px"
	 width="1984.25px" height="1205.02px" viewBox="0 0 1984.25 1205.02" enable-background="new 0 0 1984.25 1205.02"
	 xml:space="preserve">
<path fill="#FFFFFF" d="M1590.93,525.21c7.83,0,14.17-6.35,14.17-14.17V221.16c0-8.2-6.66-14.85-14.88-14.85h-342.28
	c-8.22,0-14.88,6.65-14.88,14.85v342.35c0,8.17,6.7,14.85,14.88,14.85h180.71c9.39,0,17.01-7.61,17.01-17.01v-19.13
	c0-9.39,7.61-17.01,17.01-17.01h128.27L1590.93,525.21z"/>
<path fill="#FFFFFF" d="M382.66,646.39v342.28c0,8.22,6.66,14.88,14.88,14.88h121.83c1.87,0,3.73-0.18,5.56-0.55l206.99-41.4
	c13.25-2.65,22.79-14.28,22.79-27.8V701.24c0-13.51-9.54-25.15-22.79-27.8l-206.99-41.4c-1.83-0.37-3.69-0.55-5.56-0.55H397.54
	c-8.22,0-14.88,6.66-14.88,14.88L382.66,646.39z"/>
<path fill="#FFFFFF" d="M1165.03,631.51H822.75c-8.22,0-14.88,6.66-14.88,14.88v342.28c0,8.22,6.66,14.88,14.88,14.88h342.28
	c8.22,0,14.88-6.66,14.88-14.88v-63.25c0-8.22-6.66-14.88-14.88-14.88h-16.74c-8.22,0-14.88-6.66-14.88-14.88v-16.74
	c0-8.22,6.66-14.88,14.88-14.88h16.74c8.22,0,14.88-6.66,14.88-14.88v-63.25c0-8.22-6.66-14.88-14.88-14.88h-16.74
	c-8.22,0-14.88-6.66-14.88-14.88v-16.74c0-8.22,6.66-14.88,14.88-14.88h16.74c8.22,0,14.88-6.66,14.88-14.88V646.4
	c0-8.22-6.66-14.88-14.88-14.88V631.51z"/>
<path fill="#FFFFFF" d="M1233.06,840.78v-69.76V646.38c0-8.22,6.66-14.88,14.88-14.88h342.28c8.22,0,14.88,6.66,14.88,14.88v63.25
	c0,8.22-6.66,14.88-14.88,14.88h-16.74c-8.22,0-14.88,6.66-14.88,14.88v16.74c0,8.22,6.66,14.88,14.88,14.88h16.74
	c8.22,0,14.88,6.66,14.88,14.88v8.37v194.39c0,8.22-6.66,14.88-14.88,14.88h-342.28c-8.22,0-14.88-6.66-14.88-14.88v-54.88v-8.37
	c0-8.22,6.66-14.88,14.88-14.88h16.74c8.22,0,14.88-6.66,14.88-14.88V878.9c0-8.22-6.66-14.88-14.88-14.88h-16.74
	c-8.22,0-14.88-6.66-14.88-14.88v-8.37V840.78z"/>
<path fill="#FFFFFF" d="M1123.17,208.11c2.36-1.18,4.97-1.8,7.61-1.8h20.79c15.66,0,28.35,12.69,28.35,28.35v230.31
	c0,62.62-50.76,113.39-113.39,113.39H921.25c-62.62,0-113.39-50.76-113.39-113.39V234.66c0-15.66,12.69-28.35,28.35-28.35H857
	c2.64,0,5.24,0.61,7.61,1.8l66.5,26.41c40.33,16.02,85.25,16.02,125.57,0l66.5-26.41L1123.17,208.11z"/>
<path fill="#FFFFFF" d="M424.89,578.36c-8.51,0-15.47-6.59-15.66-14.85l-29.94-339.99c-1.25-9.11,6.06-17.2,15.53-17.2
	c18.23,0,48,0,77.86,0c47.99,0,95.99,0,95.99,0s47.99,0,95.99,0c30.07,0,60.04,0,78.24,0c9.27,0,16.42,7.92,15.2,16.84l-30.05,340.3
	c-0.17,8.28-7.13,14.91-15.67,14.91h-6.81c-2.64,0-5.24-0.61-7.61-1.8l-66.5-26.41c-40.33-16.02-85.25-16.02-125.57,0l-66.5,26.41
	c-2.36,1.18-4.97,1.8-7.61,1.8h-20.79"/>
</svg>
