<?xml version="1.0" encoding="UTF-8"?>
<svg id="Layer_2" data-name="Layer 2" xmlns="http://www.w3.org/2000/svg" viewBox="0 0 1984.25 1205.02">
  <path d="M1590.93,525.21c7.83,0,14.17-6.35,14.17-14.17V221.16c0-8.2-6.66-14.85-14.88-14.85h-342.28c-8.22,0-14.88,6.65-14.88,14.85v342.35c0,8.17,6.7,14.85,14.88,14.85h180.71c9.39,0,17.01-7.61,17.01-17.01v-19.13c0-9.39,7.61-17.01,17.01-17.01h128.27Z"/>
  <path d="M382.66,646.39v342.28c0,8.22,6.66,14.88,14.88,14.88h121.83c1.87,0,3.73-.18,5.56-.55l206.99-41.4c13.25-2.65,22.79-14.28,22.79-27.8v-232.56c0-13.51-9.54-25.15-22.79-27.8l-206.99-41.4c-1.83-.37-3.69-.55-5.56-.55h-121.83c-8.22,0-14.88,6.66-14.88,14.88Z"/>
  <path d="M1165.03,631.51h-342.28c-8.22,0-14.88,6.66-14.88,14.88v342.28c0,8.22,6.66,14.88,14.88,14.88h342.28c8.22,0,14.88-6.66,14.88-14.88v-63.25c0-8.22-6.66-14.88-14.88-14.88h-16.74c-8.22,0-14.88-6.66-14.88-14.88v-16.74c0-8.22,6.66-14.88,14.88-14.88h16.74c8.22,0,14.88-6.66,14.88-14.88v-63.25c0-8.22-6.66-14.88-14.88-14.88h-16.74c-8.22,0-14.88-6.66-14.88-14.88v-16.74c0-8.22,6.66-14.88,14.88-14.88h16.74c8.22,0,14.88-6.66,14.88-14.88v-63.25c0-8.22-6.66-14.88-14.88-14.88Z"/>
  <path d="M1233.06,840.78v-69.76s0-124.64,0-124.64c0-8.22,6.66-14.88,14.88-14.88h342.28c8.22,0,14.88,6.66,14.88,14.88v63.25c0,8.22-6.66,14.88-14.88,14.88h-16.74c-8.22,0-14.88,6.66-14.88,14.88v16.74c0,8.22,6.66,14.88,14.88,14.88h16.74c8.22,0,14.88,6.66,14.88,14.88v8.37s0,194.39,0,194.39c0,8.22-6.66,14.88-14.88,14.88h-342.28c-8.22,0-14.88-6.66-14.88-14.88v-54.88s0-8.37,0-8.37c0-8.22,6.66-14.88,14.88-14.88h16.74c8.22,0,14.88-6.66,14.88-14.88v-16.74c0-8.22-6.66-14.88-14.88-14.88h-16.74c-8.22,0-14.88-6.66-14.88-14.88v-8.37Z"/>
  <path d="M1123.17,208.11c2.36-1.18,4.97-1.8,7.61-1.8h20.79c15.66,0,28.35,12.69,28.35,28.35v230.31c0,62.62-50.76,113.39-113.39,113.39h-145.28c-62.62,0-113.39-50.76-113.39-113.39v-230.31c0-15.66,12.69-28.35,28.35-28.35h20.79c2.64,0,5.24.61,7.61,1.8l66.5,26.41c40.33,16.02,85.25,16.02,125.57,0l66.5-26.41Z"/>
  <path d="M424.89,578.36c-8.51,0-15.47-6.59-15.66-14.85l-29.94-339.99c-1.25-9.11,6.06-17.2,15.53-17.2,18.23,0,48,0,77.86,0,47.99,0,95.99,0,95.99,0,0,0,47.99,0,95.99,0,30.07,0,60.04,0,78.24,0,9.27,0,16.42,7.92,15.2,16.84l-30.05,340.3c-.17,8.28-7.13,14.91-15.67,14.91h-6.81c-2.64,0-5.24-.61-7.61-1.8l-66.5-26.41c-40.33-16.02-85.25-16.02-125.57,0l-66.5,26.41c-2.36,1.18-4.97,1.8-7.61,1.8h-20.79"/>
</svg>